<?xml version="1.0" encoding="UTF-8" standalone="no"?>
<!DOCTYPE svg PUBLIC "-//W3C//DTD SVG 1.1//EN" "http://www.w3.org/Graphics/SVG/1.1/DTD/svg11.dtd">
<svg version="1.1" xmlns="http://www.w3.org/2000/svg" xmlns:xlink="http://www.w3.org/1999/xlink" preserveAspectRatio="xMidYMid meet" viewBox="0 0 500 500" width="500" height="500"><defs><path d="M0 0L500 0L500 500L0 500L0 0Z" id="e3peHs6sMs"></path><path d="M100 200L400 200L400 450L100 450L100 200Z" id="a1swOm1Y9m"></path><clipPath id="clipco6fuzzuR"><use xlink:href="#a1swOm1Y9m" opacity="1"></use></clipPath><path d="M175 100L180 100L180 350L175 350L175 100Z" id="en7XahY2d"></path><path d="M325 100L330 100L330 350L325 350L325 100Z" id="c1sFVzOm5L"></path><path d="M180 177.8L325 177.8L325 222.21L180 222.21L180 177.8Z" id="a5Ine3jTXb"></path><path d="M365.29 134.26L361.76 137.79L252.5 28.54L256.04 25L365.29 134.26Z" id="b2VVYvA9m"></path><path d="M248.97 25L252.5 28.54L143.25 137.79L139.71 134.26L248.97 25Z" id="bnYa1Oyc"></path><path d="M252.5 21.47L256.04 25L252.5 28.54L248.97 25L252.5 21.47Z" id="f7Sz8hbgGY"></path></defs><g><g><g><use xlink:href="#e3peHs6sMs" opacity="1" fill="#ffffff" fill-opacity="1"></use></g><g><use xlink:href="#a1swOm1Y9m" opacity="1" fill="#ffffff" fill-opacity="1"></use><g clip-path="url(#clipco6fuzzuR)"><use xlink:href="#a1swOm1Y9m" opacity="1" fill-opacity="0" stroke="#000000" stroke-width="10" stroke-opacity="1"></use></g></g><g><use xlink:href="#en7XahY2d" opacity="1" fill="#000000" fill-opacity="1"></use></g><g><use xlink:href="#c1sFVzOm5L" opacity="1" fill="#000000" fill-opacity="1"></use></g><g><use xlink:href="#a5Ine3jTXb" opacity="1" fill="#ffffff" fill-opacity="1"></use></g><g><use xlink:href="#b2VVYvA9m" opacity="1" fill="#000000" fill-opacity="1"></use></g><g><use xlink:href="#bnYa1Oyc" opacity="1" fill="#000000" fill-opacity="1"></use></g><g><use xlink:href="#f7Sz8hbgGY" opacity="1" fill="#000000" fill-opacity="1"></use></g></g></g></svg>